<?xml version="1.0" encoding="UTF-8" standalone="no"?>
<!-- Generator: Adobe Illustrator 18.1.1, SVG Export Plug-In . SVG Version: 6.00 Build 0)  -->

<svg
   xmlns:dc="http://purl.org/dc/elements/1.1/"
   xmlns:cc="http://creativecommons.org/ns#"
   xmlns:rdf="http://www.w3.org/1999/02/22-rdf-syntax-ns#"
   xmlns:svg="http://www.w3.org/2000/svg"
   xmlns="http://www.w3.org/2000/svg"
   xmlns:xlink="http://www.w3.org/1999/xlink"
   xmlns:sodipodi="http://sodipodi.sourceforge.net/DTD/sodipodi-0.dtd"
   xmlns:inkscape="http://www.inkscape.org/namespaces/inkscape"
   version="1.1"
   id="Layer_1"
   x="0px"
   y="0px"
   viewBox="0 0 167.2 249.4"
   enable-background="new 0 0 167.2 249.4"
   xml:space="preserve"
   sodipodi:docname="planning poker_It's clear as day.svg"
   inkscape:export-filename="C:\Projects\Sandbox\scrum-poker-cards\png\planning poker_It's clear as day 1.png"
   inkscape:export-xdpi="382.45401"
   inkscape:export-ydpi="382.45401"
   inkscape:version="0.92.4 (5da689c313, 2019-01-14)"><metadata
   id="metadata143"><rdf:RDF><cc:Work
       rdf:about=""><dc:format>image/svg+xml</dc:format><dc:type
         rdf:resource="http://purl.org/dc/dcmitype/StillImage" /></cc:Work></rdf:RDF></metadata><defs
   id="defs141"><linearGradient
     inkscape:collect="always"
     id="linearGradient5291"><stop
       style="stop-color:#ff0000;stop-opacity:1;"
       offset="0"
       id="stop5287" /><stop
       style="stop-color:#ff0000;stop-opacity:0;"
       offset="1"
       id="stop5289" /></linearGradient><style
     id="style394">.cls-1{fill:#dcdddd;}.cls-2{fill:#231815;}.cls-3{fill:#2ea7e0;}.cls-4{fill:#f8b62d;}</style><linearGradient
     inkscape:collect="always"
     xlink:href="#linearGradient5291"
     id="linearGradient5293"
     x1="-121.26521"
     y1="148.49115"
     x2="-103.22748"
     y2="148.49115"
     gradientUnits="userSpaceOnUse" /></defs><sodipodi:namedview
   pagecolor="#ffffff"
   bordercolor="#666666"
   borderopacity="1"
   objecttolerance="10"
   gridtolerance="10"
   guidetolerance="10"
   inkscape:pageopacity="0"
   inkscape:pageshadow="2"
   inkscape:window-width="1920"
   inkscape:window-height="1001"
   id="namedview139"
   showgrid="false"
   inkscape:zoom="1.8925421"
   inkscape:cx="107.35878"
   inkscape:cy="67.748473"
   inkscape:window-x="-9"
   inkscape:window-y="-9"
   inkscape:window-maximized="1"
   inkscape:current-layer="Layer_1" />
<rect
   x="-5.7"
   y="-5.7"
   width="178.6"
   height="260.8"
   id="rect2"
   inkscape:export-filename="C:\Projects\Sandbox\scrum-poker-cards\png\planning poker_It's clear as day 1.png"
   inkscape:export-xdpi="382.45401"
   inkscape:export-ydpi="382.45401"
   fill="#2BB4A0" />





<ellipse
   cx="20.8"
   cy="39.2"
   id="circle66"
   fill="#BA3033"
   r="2.6"
   inkscape:export-filename="C:\Projects\Sandbox\scrum-poker-cards\png\planning poker_It's clear as day 1.png"
   inkscape:export-xdpi="382.45401"
   inkscape:export-ydpi="382.45401" />
<g
   id="g70"
   inkscape:export-filename="C:\Projects\Sandbox\scrum-poker-cards\png\planning poker_It's clear as day 1.png"
   inkscape:export-xdpi="382.45401"
   inkscape:export-ydpi="382.45401">
	<text
   transform="matrix(1 0 0 1 15.5643 29.7173)"
   font-size="20"
   id="text68"
   font-family="'RobotoSlab-Regular'">5</text>

</g>
<circle
   fill="#BA3033"
   cx="146.4"
   cy="210.3"
   r="2.6"
   id="circle72"
   inkscape:export-filename="C:\Projects\Sandbox\scrum-poker-cards\png\planning poker_It's clear as day 1.png"
   inkscape:export-xdpi="382.45401"
   inkscape:export-ydpi="382.45401" />
<g
   id="g76"
   inkscape:export-filename="C:\Projects\Sandbox\scrum-poker-cards\png\planning poker_It's clear as day 1.png"
   inkscape:export-xdpi="382.45401"
   inkscape:export-ydpi="382.45401">
	<text
   transform="matrix(-1 0 0 -1 151.6725 219.7435)"
   font-family="'RobotoSlab-Regular'"
   font-size="20"
   id="text74">5</text>

</g>

<circle
   opacity="0.2"
   fill="#1A4E47"
   cx="32.9"
   cy="193.2"
   r="6.8"
   id="circle80"
   inkscape:export-filename="C:\Projects\Sandbox\scrum-poker-cards\png\planning poker_It's clear as day 1.png"
   inkscape:export-xdpi="382.45401"
   inkscape:export-ydpi="382.45401" />
<ellipse
   cx="136.9"
   cy="24.2"
   id="circle82"
   fill="#1A4E47"
   opacity="0.2"
   r="4.2"
   inkscape:export-filename="C:\Projects\Sandbox\scrum-poker-cards\png\planning poker_It's clear as day 1.png"
   inkscape:export-xdpi="382.45401"
   inkscape:export-ydpi="382.45401" />
<ellipse
   cx="139.4"
   cy="51.7"
   id="circle84"
   fill="#1A4E47"
   opacity="0.2"
   r="5.2"
   inkscape:export-filename="C:\Projects\Sandbox\scrum-poker-cards\png\planning poker_It's clear as day 1.png"
   inkscape:export-xdpi="382.45401"
   inkscape:export-ydpi="382.45401" />
<circle
   opacity="0.2"
   fill="#1A4E47"
   cx="44.7"
   cy="211.4"
   r="8.5"
   id="circle86"
   inkscape:export-filename="C:\Projects\Sandbox\scrum-poker-cards\png\planning poker_It's clear as day 1.png"
   inkscape:export-xdpi="382.45401"
   inkscape:export-ydpi="382.45401" />
<circle
   opacity="0.2"
   fill="#1A4E47"
   cx="23.7"
   cy="221.4"
   r="3.5"
   id="circle88"
   inkscape:export-filename="C:\Projects\Sandbox\scrum-poker-cards\png\planning poker_It's clear as day 1.png"
   inkscape:export-xdpi="382.45401"
   inkscape:export-ydpi="382.45401" />
<ellipse
   cx="126.4"
   cy="37.2"
   id="circle90"
   fill="#1A4E47"
   opacity="0.2"
   r="4.6"
   inkscape:export-filename="C:\Projects\Sandbox\scrum-poker-cards\png\planning poker_It's clear as day 1.png"
   inkscape:export-xdpi="382.45401"
   inkscape:export-ydpi="382.45401" />



<g
   inkscape:groupmode="layer"
   id="layer1"
   inkscape:label="Calendar 1"
   style="display:none"><g
     id="g5363"
     transform="matrix(1.1405508,0,0,1.1405508,196.49985,3.3167075)"><path
       inkscape:connector-curvature="0"
       id="path575"
       d="m -48.526691,73.217289 a 4.49,4.49 0 0 0 -4.51,-4.48 h -10.78 a 10,10 0 0 0 -19.88,0 h -7.62 a 10,10 0 0 0 -19.879999,0 h -7.84 a 10,10 0 0 0 -19.89,0 4.47,4.47 0 0 0 -4.18,4.45 v 54.100001 h -6.8 a 1.13,1.13 0 0 0 -0.32,0.06 1.07,1.07 0 0 0 -0.32,-0.06 1,1 0 0 0 -1,1 12.52,12.52 0 0 0 8.51,11.81999 0.82,0.82 0 0 0 -0.07,0.31 v 5.59 a 4.17,4.17 0 0 0 4.17,4.16 h 85.999999 a 4.48,4.48 0 0 0 4.48,-4.47 z"
       style="fill:#000000" /><path
       inkscape:connector-curvature="0"
       style="fill:#ffffff"
       id="path549"
       d="m -141.15669,146.00728 v -5.40999 a 12.38,12.38 0 0 0 2.12,0.19999 0.91,0.91 0 0 0 0.37,-0.08 0.91,0.91 0 0 0 0.37,0.08 h 66.509999 a 12.51,12.51 0 0 0 10.51,-5.75 v 13.12 h -77.709999 a 2.17,2.17 0 0 1 -2.17,-2.16 z" /><path
       sodipodi:nodetypes="cccscccc"
       inkscape:connector-curvature="0"
       style="fill:#ffffff"
       id="path557"
       d="m -141.16669,87.307289 h 79.879999 v 41.000001 c -0.0384,5.32927 -4.05958,9.78618 -9.35682,10.3708 -5.29725,0.58461 -10.19354,-2.88817 -11.39318,-8.0808 0.0568,-3.94905 -5.92,-3.31 -5.92,-3.31 -38.662049,0.009 -20.020859,0 -53.199999,0 z" /><text
       id="text78-6"
       font-size="140"
       style="font-size:45.62448883px;font-family:RobotoSlab-Thin;fill:#ba3033;fill-opacity:1;stroke:#000000;stroke-width:1.82410634;stroke-miterlimit:4;stroke-dasharray:none;stroke-opacity:1"
       x="-116.46142"
       y="130.12506">5</text>
<path
       inkscape:connector-curvature="0"
       style="fill:#9a7143;fill-opacity:1"
       id="path573"
       d="m -53.036691,70.737289 a 2.48,2.48 0 0 1 2.48,2.48 v 12.08 h -8.75 v -14.56 z" /><path
       inkscape:connector-curvature="0"
       style="fill:#9a7143;fill-opacity:1"
       id="path4-6"
       d="m -53.036691,148.16728 h -6.27 V 87.297289 h 8.75 v 58.399991 a 2.48,2.48 0 0 1 -2.48,2.47 z" /><g
       transform="matrix(-0.12923684,0,0,0.12923684,-55.479061,100.88572)"
       data-name="图层 1"
       id="图层_1"><path
         style="fill:#231815"
         inkscape:connector-curvature="0"
         class="cls-2"
         d="m 379.05,154.7 c 8.38,-4.84 15.93,8.13 7.57,13 l -29.14,16.83 c -8.39,4.84 -15.93,-8.13 -7.57,-12.95 z"
         id="path406" /><path
         style="fill:#231815"
         inkscape:connector-curvature="0"
         class="cls-2"
         d="m 342.32,240.92 c 0,-0.14 0,-0.28 0,-0.42 0.01,0.14 0.01,0.28 0,0.42 z"
         id="path414" /><path
         style="fill:#231815"
         inkscape:connector-curvature="0"
         class="cls-2"
         d="m 318.34,99.37 c 4.83,-8.37 17.79,-0.8 12.95,7.57 l -16.82,29.15 c -4.83,8.36 -17.79,0.8 -13,-7.57 z"
         id="path426" /><path
         sodipodi:nodetypes="ccccccc"
         style="fill:#f8b62d"
         inkscape:connector-curvature="0"
         class="cls-4"
         d="m 261.39,160.18 c 33.70664,6.95833 59.57031,34.08092 64.92,68.08 0.89,8.28 0,0 0.89,8.28 -30.01045,-5.29216 -68.75822,4.11568 -87.48,28.16 -69.45543,22.46196 -63.42771,27.81048 -68.43,9.96 -11.16004,-24.7286 -9.53974,-53.349 4.34,-76.66 17.54,-28.92 52.48,-44.57 85.76,-37.82 z"
         id="path440" /><path
         style="fill:#231815"
         inkscape:connector-curvature="0"
         class="cls-2"
         d="m 253.06,81.92 v 33.65 c 0,9.67 -15,9.66 -15,0 V 81.92 c 0,-9.67 15,-9.65 15,0 z"
         id="path448" /><path
         style="fill:#231815"
         inkscape:connector-curvature="0"
         class="cls-2"
         d="m 189.61,128.52 c 4.84,8.38 -8.13,15.92 -13,7.57 L 159.78,106.94 C 155,98.56 168,91 172.78,99.37 Z"
         id="path454" /><path
         style="fill:#231815"
         inkscape:connector-curvature="0"
         class="cls-2"
         d="m 174.86,281.67 a 72.94,72.94 0 0 0 4.29,6.55 55.56,55.56 0 0 0 -8.47,13.42 q -2.72,-3.28 -5.14,-6.84 a 62,62 0 0 1 9.32,-13.13 z"
         id="path458" /><path
         style="fill:#231815"
         inkscape:connector-curvature="0"
         class="cls-2"
         d="m 342.15,235.45 a 78.37,78.37 0 0 0 -15.84,-7.19 82.63,82.63 0 0 0 -64.92,-68.08 c -33.28,-6.75 -68.22,8.9 -85.76,37.85 a 83.06,83.06 0 0 0 -4.39,76.63 67.8,67.8 0 0 0 -10.24,12.88 c -19.27,-34.5 -15,-78.17 10,-108.75 25.37,-31 69.58,-43.25 107.27,-29.43 a 98,98 0 0 1 63.88,86.09 z"
         id="path460" /><path
         style="fill:#231815"
         inkscape:connector-curvature="0"
         class="cls-2"
         d="m 174.86,281.67 a 62,62 0 0 0 -9.32,13.13 c -1,-1.44 -1.95,-2.9 -2.86,-4.4 -0.57,-0.95 -1.12,-1.9 -1.65,-2.86 a 67.8,67.8 0 0 1 10.21,-12.88 78.73,78.73 0 0 0 3.62,7.01 z"
         id="path462" /><path
         style="fill:#231815"
         inkscape:connector-curvature="0"
         class="cls-2"
         d="m 141.22,171.53 c 8.37,4.83 0.8,17.78 -7.57,12.95 L 104.5,167.65 c -8.36,-4.83 -0.8,-17.79 7.57,-13 z"
         id="path466" /><path
         style="fill:#231815"
         inkscape:connector-curvature="0"
         class="cls-2"
         d="m 120.71,232.93 c 9.66,0 9.65,15 0,15 H 87.05 c -9.67,0 -9.65,-15 0,-15 z"
         id="path470" /></g><path
       inkscape:connector-curvature="0"
       id="rect634"
       d="m -87.326181,127.78027 c -0.55944,-0.002 -0.9336,0.0371 -0.9336,0.0371 -32.395329,0.008 -28.448859,0.002 -44.576169,0 v 10.96875 h 57.607419 c -3.46478,-1.08384 -6.24786,-3.92069 -7.11133,-7.6582 0.0426,-2.96179 -3.308,-3.34228 -4.98632,-3.34766 z"
       style="fill:#000000;fill-opacity:1;stroke:#000000" /><path
       inkscape:connector-curvature="0"
       style="fill:#9a7143;fill-opacity:1"
       id="path565"
       d="m -138.97669,70.747289 a 10,10 0 0 0 5.94,8.21 4.07,4.07 0 0 0 0.51,1.83 4,4 0 0 0 2.49,1.81 4.19,4.19 0 0 0 1,0.14 4,4 0 0 0 2,-0.54 4.0007824,4.0007824 0 0 0 -4,-6.93001 v 0 a 3.89,3.89 0 0 0 -1.54,1.63 8,8 0 0 1 -4.39,-6.15999 h 25.77 a 10,10 0 0 0 6,8.17 4,4 0 0 0 3,3.69 4.07,4.07 0 0 0 1,0.14 3.94,3.94 0 0 0 1.999999,-0.54 4,4 0 0 0 -0.999999,-7.33 4,4 0 0 0 -3,0.39999 4,4 0 0 0 -1.54,1.63 8,8 0 0 1 -4.38,-6.15999 h 25.419999 a 10,10 0 0 0 6.47,8.36 4,4 0 0 0 2.94,3.5 4.07,4.07 0 0 0 1,0.14 3.92,3.92 0 0 0 2,-0.54 4,4 0 1 0 -5.63,-5.1 8,8 0 0 1 -4.79,-6.36 h 20.4 v 14.56 h -79.849999 v -12.08 a 2.48,2.48 0 0 1 2.19,-2.45 z" /><path
       inkscape:connector-curvature="0"
       style="fill:#2bb4a0;fill-opacity:1"
       id="path571"
       d="m -73.786691,61.737289 a 8,8 0 0 1 7.93,7 h -15.82 a 8,8 0 0 1 7.92,-6.99 z" /><path
       inkscape:connector-curvature="0"
       style="fill:#2bb4a0;fill-opacity:1"
       id="path569"
       d="m -101.28669,61.737289 a 8,8 0 0 1 7.929999,7 h -15.819999 a 8,8 0 0 1 7.92,-6.99 z" /><path
       inkscape:connector-curvature="0"
       style="fill:#2bb4a0;fill-opacity:1"
       id="path567"
       d="m -129.03669,61.747289 a 8,8 0 0 1 7.92,7 h -15.84 a 8,8 0 0 1 7.92,-7 z" /><path
       inkscape:connector-curvature="0"
       style="fill:#2bb4a0;fill-opacity:1"
       id="path563"
       d="m -129.03669,77.747289 a 7.81,7.81 0 0 1 -1.62,-0.17 2,2 0 0 1 0.62,-0.62001 2,2 0 0 1 1.51,-0.19999 2,2 0 0 1 1.22,0.94 2,2 0 0 1 0.2,1.51 2,2 0 0 1 -0.93,1.26 2,2 0 0 1 -2.73,-0.73 0.71,0.71 0 0 1 -0.08,-0.18 9.83,9.83 0 0 0 1.81,0.18 1,1 0 0 0 0,-2 z" /><path
       inkscape:connector-curvature="0"
       style="fill:#2bb4a0;fill-opacity:1"
       id="path561"
       d="m -101.26669,77.747289 a 7.88,7.88 0 0 1 -1.62,-0.17 2.12,2.12 0 0 1 0.62,-0.57 2.06,2.06 0 0 1 1.52,-0.2 2,2 0 0 1 1.209999,0.94 2,2 0 1 1 -3.459999,2 l -0.04,-0.19 a 9.83,9.83 0 0 0 1.81,0.18 1,1 0 0 0 0,-2 z" /><path
       inkscape:connector-curvature="0"
       style="fill:#2bb4a0;fill-opacity:1"
       id="path559"
       d="m -73.766691,77.747289 a 7.46,7.46 0 0 1 -1.16,-0.1 2.13,2.13 0 0 1 0.66,-0.64 2.07,2.07 0 0 1 1.52,-0.2 1.94,1.94 0 0 1 1.21,0.94 2,2 0 0 1 -2.25,2.93 2,2 0 0 1 -1.21,-0.93 c 0,0 0,-0.06 0,-0.09 a 10.69,10.69 0 0 0 1.27,0.09 1,1 0 0 0 0,-2 z" /></g></g><g
   inkscape:groupmode="layer"
   id="layer2"
   inkscape:label="Calendar 2"
   style="display:none"><g
     id="g5639"><path
       inkscape:connector-curvature="0"
       id="path575-0"
       d="m 141.15269,86.824745 a 5.1210731,5.1210731 0 0 0 -5.14388,-5.109668 h -12.29514 a 11.405508,11.405508 0 0 0 -22.67415,0 h -8.690995 a 11.405508,11.405508 0 0 0 -22.674149,0 h -8.941918 a 11.405508,11.405508 0 0 0 -22.685555,0 5.0982621,5.0982621 0 0 0 -4.767503,5.075452 v 61.703801 h -7.755745 a 1.2888224,1.2888224 0 0 0 -0.364976,0.0684 1.2203894,1.2203894 0 0 0 -0.364977,-0.0684 1.1405508,1.1405508 0 0 0 -1.140551,1.14055 14.279696,14.279696 0 0 0 9.706088,13.4813 0.93525166,0.93525166 0 0 0 -0.07984,0.35357 v 6.37568 a 4.7560968,4.7560968 0 0 0 4.756097,4.74469 h 98.087364 a 5.1096676,5.1096676 0 0 0 5.10967,-5.09826 z"
       style="fill:#000000;stroke-width:1.14055085" /><path
       inkscape:connector-curvature="0"
       style="fill:#cccccc;stroke-width:1.14055085"
       id="path549-0"
       d="m 35.503474,169.84543 v -6.17037 a 14.120019,14.120019 0 0 0 2.417968,0.2281 1.0379012,1.0379012 0 0 0 0.422004,-0.0913 1.0379012,1.0379012 0 0 0 0.422004,0.0913 h 75.85803 a 14.268291,14.268291 0 0 0 11.98719,-6.55817 v 14.96403 h -88.6322 a 2.4749952,2.4749952 0 0 1 -2.474996,-2.46359 z" /><path
       sodipodi:nodetypes="cccscccc"
       inkscape:connector-curvature="0"
       style="fill:#ececec;stroke-width:1.14055085"
       id="path557-9"
       d="m 35.492069,102.89511 h 91.107201 v 46.76258 c -0.0438,6.0783 -4.63016,11.16164 -10.67193,11.82842 -6.04179,0.66678 -11.62625,-3.2941 -12.9945,-9.21656 0.0648,-4.50409 -6.752064,-3.77522 -6.752064,-3.77522 -44.096031,0.0103 -22.834807,0 -60.677302,0 z" /><path
       inkscape:connector-curvature="0"
       style="fill:#9a7143;fill-opacity:1;stroke-width:1.14055085"
       id="path573-5"
       d="m 136.00881,83.996179 a 2.828566,2.828566 0 0 1 2.82857,2.828566 V 100.6026 h -9.97982 V 83.996179 Z" /><path
       inkscape:connector-curvature="0"
       style="fill:#9a7143;fill-opacity:1;stroke-width:1.14055085"
       id="path4-6-4"
       d="m 136.00881,172.30902 h -7.15125 V 102.8837 h 9.97982 v 66.60816 a 2.828566,2.828566 0 0 1 -2.82857,2.81716 z" /><g
       transform="matrix(-0.20007933,0,0,0.20007933,137.42714,102.49216)"
       data-name="图层 1"
       id="图层_1-3"><path
         style="fill:#231815"
         inkscape:connector-curvature="0"
         class="cls-2"
         d="m 379.05,154.7 c 8.38,-4.84 15.93,8.13 7.57,13 l -29.14,16.83 c -8.39,4.84 -15.93,-8.13 -7.57,-12.95 z"
         id="path406-0" /><path
         style="fill:#231815"
         inkscape:connector-curvature="0"
         class="cls-2"
         d="m 342.32,240.92 c 0,-0.14 0,-0.28 0,-0.42 0.01,0.14 0.01,0.28 0,0.42 z"
         id="path414-4" /><path
         style="fill:#231815"
         inkscape:connector-curvature="0"
         class="cls-2"
         d="m 318.34,99.37 c 4.83,-8.37 17.79,-0.8 12.95,7.57 l -16.82,29.15 c -4.83,8.36 -17.79,0.8 -13,-7.57 z"
         id="path426-3" /><path
         sodipodi:nodetypes="ccccccc"
         style="fill:#f8b62d"
         inkscape:connector-curvature="0"
         class="cls-4"
         d="m 261.39,160.18 c 33.70664,6.95833 59.57031,34.08092 64.92,68.08 0.89,8.28 0,0 0.89,8.28 -30.01045,-5.29216 -68.75822,4.11568 -87.48,28.16 -69.45543,22.46196 -63.42771,27.81048 -68.43,9.96 -11.16004,-24.7286 -9.53974,-53.349 4.34,-76.66 17.54,-28.92 52.48,-44.57 85.76,-37.82 z"
         id="path440-9" /><path
         style="fill:#231815"
         inkscape:connector-curvature="0"
         class="cls-2"
         d="m 253.06,81.92 v 33.65 c 0,9.67 -15,9.66 -15,0 V 81.92 c 0,-9.67 15,-9.65 15,0 z"
         id="path448-3" /><path
         style="fill:#231815"
         inkscape:connector-curvature="0"
         class="cls-2"
         d="m 189.61,128.52 c 4.84,8.38 -8.13,15.92 -13,7.57 L 159.78,106.94 C 155,98.56 168,91 172.78,99.37 Z"
         id="path454-2" /><path
         style="fill:#231815"
         inkscape:connector-curvature="0"
         class="cls-2"
         d="m 174.86,281.67 a 72.94,72.94 0 0 0 4.29,6.55 55.56,55.56 0 0 0 -8.47,13.42 q -2.72,-3.28 -5.14,-6.84 a 62,62 0 0 1 9.32,-13.13 z"
         id="path458-5" /><path
         style="fill:#231815"
         inkscape:connector-curvature="0"
         class="cls-2"
         d="m 342.15,235.45 a 78.37,78.37 0 0 0 -15.84,-7.19 82.63,82.63 0 0 0 -64.92,-68.08 c -33.28,-6.75 -68.22,8.9 -85.76,37.85 a 83.06,83.06 0 0 0 -4.39,76.63 67.8,67.8 0 0 0 -10.24,12.88 c -19.27,-34.5 -15,-78.17 10,-108.75 25.37,-31 69.58,-43.25 107.27,-29.43 a 98,98 0 0 1 63.88,86.09 z"
         id="path460-3" /><path
         style="fill:#231815"
         inkscape:connector-curvature="0"
         class="cls-2"
         d="m 174.86,281.67 a 62,62 0 0 0 -9.32,13.13 c -1,-1.44 -1.95,-2.9 -2.86,-4.4 -0.57,-0.95 -1.12,-1.9 -1.65,-2.86 a 67.8,67.8 0 0 1 10.21,-12.88 78.73,78.73 0 0 0 3.62,7.01 z"
         id="path462-5" /><path
         style="fill:#231815"
         inkscape:connector-curvature="0"
         class="cls-2"
         d="m 141.22,171.53 c 8.37,4.83 0.8,17.78 -7.57,12.95 L 104.5,167.65 c -8.36,-4.83 -0.8,-17.79 7.57,-13 z"
         id="path466-7" /><path
         style="fill:#231815"
         inkscape:connector-curvature="0"
         class="cls-2"
         d="m 120.71,232.93 c 9.66,0 9.65,15 0,15 H 87.05 c -9.67,0 -9.65,-15 0,-15 z"
         id="path470-3" /></g><path
       inkscape:connector-curvature="0"
       id="rect634-0"
       d="m 96.899904,149.0566 c -0.638069,-0.002 -1.064818,0.0423 -1.064818,0.0423 -36.948518,0.009 -32.447369,0.002 -50.841385,0 v 12.51042 h 65.704189 c -3.95176,-1.23618 -7.126,-4.47175 -8.11083,-8.73457 0.0486,-3.37807 -3.772946,-3.81204 -5.687156,-3.81817 z"
       style="fill:#000000;fill-opacity:1;stroke:#000000;stroke-width:1.14055085" /><path
       inkscape:connector-curvature="0"
       style="fill:#9a7143;fill-opacity:1;stroke-width:1.14055085"
       id="path565-7"
       d="m 37.989875,84.007585 a 11.405508,11.405508 0 0 0 6.774872,9.363922 4.6420418,4.6420418 0 0 0 0.581681,2.087208 4.5622032,4.5622032 0 0 0 2.839971,2.064397 4.7789079,4.7789079 0 0 0 1.140551,0.159677 4.5622032,4.5622032 0 0 0 2.281102,-0.615898 4.5630956,4.5630956 0 0 0 -4.562204,-7.904028 v 0 A 4.4367426,4.4367426 0 0 0 45.2894,91.021961 9.1244064,9.1244064 0 0 1 40.282382,83.996179 h 29.391994 a 11.405508,11.405508 0 0 0 6.843305,9.3183 4.5622032,4.5622032 0 0 0 3.421652,4.208633 4.6420418,4.6420418 0 0 0 1.140551,0.159677 4.4937702,4.4937702 0 0 0 2.281101,-0.615898 4.5622032,4.5622032 0 0 0 -1.14055,-8.360237 4.5622032,4.5622032 0 0 0 -3.421652,0.456209 4.5622032,4.5622032 0 0 0 -1.756449,1.859098 9.1244064,9.1244064 0 0 1 -4.995612,-7.025782 h 28.992798 a 11.405508,11.405508 0 0 0 7.37937,9.535005 4.5622032,4.5622032 0 0 0 3.35322,3.991928 4.6420418,4.6420418 0 0 0 1.14055,0.159677 4.4709591,4.4709591 0 0 0 2.2811,-0.615898 4.5622032,4.5622032 0 1 0 -6.4213,-5.816809 9.1244064,9.1244064 0 0 1 -5.46324,-7.253903 h 23.26723 V 100.6026 H 35.503474 V 86.824745 a 2.828566,2.828566 0 0 1 2.497807,-2.794349 z" /><path
       inkscape:connector-curvature="0"
       style="fill:#2bb4a0;fill-opacity:1;stroke-width:1.14055085"
       id="path571-6"
       d="m 112.34238,73.731222 a 9.1244064,9.1244064 0 0 1 9.04457,7.983855 h -18.04352 a 9.1244064,9.1244064 0 0 1 9.03317,-7.97245 z" /><path
       inkscape:connector-curvature="0"
       style="fill:#2bb4a0;fill-opacity:1;stroke-width:1.14055085"
       id="path569-9"
       d="m 80.977235,73.731222 a 9.1244064,9.1244064 0 0 1 9.044566,7.983855 H 71.978289 a 9.1244064,9.1244064 0 0 1 9.033162,-7.97245 z" /><path
       inkscape:connector-curvature="0"
       style="fill:#2bb4a0;fill-opacity:1;stroke-width:1.14055085"
       id="path567-9"
       d="m 49.32695,73.742627 a 9.1244064,9.1244064 0 0 1 9.033162,7.983856 H 40.293788 a 9.1244064,9.1244064 0 0 1 9.033162,-7.983856 z" /><path
       inkscape:connector-curvature="0"
       style="fill:#2bb4a0;fill-opacity:1;stroke-width:1.14055085"
       id="path563-8"
       d="m 49.32695,91.99144 a 8.9077017,8.9077017 0 0 1 -1.847692,-0.193893 2.2811016,2.2811016 0 0 1 0.707141,-0.707153 2.2811016,2.2811016 0 0 1 1.722232,-0.228099 2.2811016,2.2811016 0 0 1 1.391472,1.072118 2.2811016,2.2811016 0 0 1 0.22811,1.722231 2.2811016,2.2811016 0 0 1 -1.060712,1.437094 2.2811016,2.2811016 0 0 1 -3.113704,-0.832602 0.80979107,0.80979107 0 0 1 -0.09124,-0.205299 11.211614,11.211614 0 0 0 2.064397,0.205299 1.1405508,1.1405508 0 0 0 0,-2.281101 z" /><path
       inkscape:connector-curvature="0"
       style="fill:#2bb4a0;fill-opacity:1;stroke-width:1.14055085"
       id="path561-9"
       d="m 81.000046,91.99144 a 8.9875403,8.9875403 0 0 1 -1.847693,-0.193893 2.4179677,2.4179677 0 0 1 0.707142,-0.650114 2.3495346,2.3495346 0 0 1 1.733637,-0.228111 2.2811016,2.2811016 0 0 1 1.380065,1.072118 2.2811016,2.2811016 0 1 1 -3.946304,2.281102 l -0.04562,-0.216705 a 11.211614,11.211614 0 0 0 2.064397,0.205299 1.1405508,1.1405508 0 0 0 0,-2.281101 z" /><path
       inkscape:connector-curvature="0"
       style="fill:#2bb4a0;fill-opacity:1;stroke-width:1.14055085"
       id="path559-9"
       d="m 112.36519,91.99144 a 8.508509,8.508509 0 0 1 -1.32304,-0.114055 2.4293732,2.4293732 0 0 1 0.75277,-0.729952 2.3609402,2.3609402 0 0 1 1.73363,-0.228111 2.2126686,2.2126686 0 0 1 1.38007,1.072118 2.2811016,2.2811016 0 0 1 -2.56624,3.341814 2.2811016,2.2811016 0 0 1 -1.38007,-1.060712 c 0,0 0,-0.06843 0,-0.10265 a 12.192488,12.192488 0 0 0 1.4485,0.10265 1.140551,1.140551 0 0 0 0,-2.281102 z" /></g></g><g
   inkscape:groupmode="layer"
   id="layer3"
   inkscape:label="Calendar 3"
   style="display:inline"><g
     id="g8725"
     transform="translate(5.5377662)"
     inkscape:export-filename="C:\Projects\Sandbox\scrum-poker-cards\png\planning poker_It's clear as day 1.png"
     inkscape:export-xdpi="382.45401"
     inkscape:export-ydpi="382.45401"><path
       inkscape:connector-curvature="0"
       id="path575-0-9-6"
       d="m 111.24361,81.713958 v 92.875012 h 12.11915 c 2.81754,1e-5 5.10308,-2.28207 5.10937,-5.09962 l -0.0801,-82.666017 c -0.006,-2.832762 -2.31179,-5.121998 -5.14453,-5.109375 z"
       style="display:inline;fill:#000000;stroke-width:1.14055085" /><path
       style="fill:#000000;stroke-width:1.14055085"
       d="m 49.390625,71.503906 c -5.83664,0 -10.732439,4.406399 -11.34375,10.210938 -2.676987,0.174034 -4.761227,2.393541 -4.767578,5.076172 v 61.703124 h -7.755859 c -0.124324,0.005 -0.247516,0.0281 -0.365235,0.0684 -0.117458,-0.0413 -0.240798,-0.0643 -0.365234,-0.0684 -0.629909,0 -1.140625,0.51072 -1.140625,1.14063 0.01975,6.10693 3.921767,11.52451 9.707031,13.48046 -0.04942,0.11152 -0.07678,0.23353 -0.08008,0.35547 v 6.375 c 0.0063,2.62226 2.133587,4.74415 4.755859,4.74414 h 79.644536 v -5.63672 h 8.88867 V 86.078125 h -2.75781 v -4.363281 h -0.0977 c -0.63618,-5.781382 -5.51967,-10.158203 -11.33594,-10.158203 -5.81628,0 -10.70171,4.376821 -11.33789,10.158203 h -8.691406 c -0.636187,-5.78138 -5.519662,-10.158203 -11.335937,-10.158203 -5.816276,0 -10.701704,4.376823 -11.337891,10.158203 H 60.732422 C 60.121111,75.910305 55.227264,71.503906 49.390625,71.503906 Z"
       id="path575-0-9"
       inkscape:connector-curvature="0" /><path
       style="fill:#27a08e;stroke-width:1.14055085;fill-opacity:1"
       d="M 132.14844 157.3457 A 14.268291 14.268291 0 0 1 120.16016 163.90234 L 44.302734 163.90234 A 1.0379012 1.0379012 0 0 1 43.880859 163.8125 A 1.0379012 1.0379012 0 0 1 43.458984 163.90234 A 14.120019 14.120019 0 0 1 41.041016 163.67578 L 41.041016 169.8457 A 2.4749952 2.4749952 0 0 0 43.515625 172.30859 L 125.2168 172.30859 L 125.2168 172.30273 L 129.32422 172.30273 C 130.88195 172.30275 132.14634 171.04405 132.15234 169.48633 L 132.15234 168.02734 L 132.14844 168.02734 L 132.14844 157.3457 z "
       transform="translate(-5.5377662)"
       id="path549-0-6" /><path
       sodipodi:nodetypes="cccscccc"
       inkscape:connector-curvature="0"
       style="fill:#b8eee5;stroke-width:1.14055085;fill-opacity:1;opacity:1"
       id="path557-9-9"
       d="m 35.492069,102.89511 h 91.107201 v 46.76258 c -0.0438,6.0783 -4.63016,11.16164 -10.67193,11.82842 -6.04179,0.66678 -11.62625,-3.2941 -12.9945,-9.21656 0.0648,-4.50409 -6.752064,-3.77522 -6.752064,-3.77522 -44.096031,0.0103 -22.834807,0 -60.677302,0 z" /><path
       id="path406-0-8"
       d="m 61.58707,133.44443 c -1.676665,-0.96838 -3.187264,1.62665 -1.514601,2.60103 l 5.830312,3.36734 c 1.678666,0.96838 3.187264,-1.62665 1.514601,-2.59103 z"
       class="cls-2"
       inkscape:connector-curvature="0"
       style="fill:#231815;stroke-width:0.20007934" /><path
       id="path414-4-3"
       d="m 68.935984,150.69527 c 0,-0.028 0,-0.056 0,-0.084 -0.002,0.028 -0.002,0.056 0,0.084 z"
       class="cls-2"
       inkscape:connector-curvature="0"
       style="fill:#231815;stroke-width:0.20007934" /><path
       id="path426-3-7"
       d="m 73.733886,122.37404 c -0.966383,-1.67466 -3.559411,-0.16006 -2.591027,1.5146 l 3.365334,5.83232 c 0.966383,1.67266 3.559411,0.16006 2.601031,-1.5146 z"
       class="cls-2"
       inkscape:connector-curvature="0"
       style="fill:#231815;stroke-width:0.20007934" /><path
       id="path440-9-1"
       d="m 85.128404,134.54087 c -6.744002,1.39222 -11.918788,6.81888 -12.98915,13.6214 -0.178071,1.65665 0,0 -0.178071,1.65665 6.004471,-1.05885 13.757099,0.82347 17.50294,5.63424 13.896597,4.49417 12.690577,5.5643 13.691427,1.99279 2.23289,-4.94768 1.90871,-10.67403 -0.86834,-15.33808 -3.509394,-5.7863 -10.500166,-8.91754 -17.158806,-7.567 z"
       class="cls-4"
       inkscape:connector-curvature="0"
       style="fill:#f8b62d;stroke-width:0.20007934"
       sodipodi:nodetypes="ccccccc" /><path
       id="path448-3-5"
       d="m 86.795065,118.88266 v 6.73267 c 0,1.93477 3.00119,1.93276 3.00119,0 v -6.73267 c 0,-1.93477 -3.00119,-1.93077 -3.00119,0 z"
       class="cls-2"
       inkscape:connector-curvature="0"
       style="fill:#231815;stroke-width:0.20007934" /><path
       id="path454-2-6"
       d="m 99.490098,128.20636 c -0.968384,1.67666 1.626642,3.18526 2.601032,1.5146 l 3.36733,-5.83232 c 0.95638,-1.67666 -1.64465,-3.18926 -2.60103,-1.5146 z"
       class="cls-2"
       inkscape:connector-curvature="0"
       style="fill:#231815;stroke-width:0.20007934" /><path
       id="path458-5-4"
       d="m 102.44127,158.8485 a 14.593786,14.593786 0 0 1 -0.85834,1.31052 11.116408,11.116408 0 0 1 1.69467,2.68507 q 0.54422,-0.65626 1.02841,-1.36854 a 12.404918,12.404918 0 0 0 -1.86474,-2.62705 z"
       class="cls-2"
       inkscape:connector-curvature="0"
       style="fill:#231815;stroke-width:0.20007934" /><path
       id="path460-3-0"
       d="m 68.969997,149.60084 a 15.680217,15.680217 0 0 1 3.169257,-1.43857 16.532555,16.532555 0 0 1 12.98915,-13.6214 c 6.65864,-1.35054 13.649412,1.7807 17.158806,7.573 a 16.618589,16.618589 0 0 1 0.87835,15.33208 13.565379,13.565379 0 0 1 2.04881,2.57702 c 3.85553,-6.90274 3.00119,-15.6402 -2.0008,-21.75863 -5.076008,-6.20246 -13.921515,-8.65343 -21.462505,-5.88833 a 19.607774,19.607774 0 0 0 -12.781068,17.22483 z"
       class="cls-2"
       inkscape:connector-curvature="0"
       style="fill:#231815;stroke-width:0.20007934" /><path
       id="path462-5-8"
       d="m 102.44127,158.8485 a 12.404918,12.404918 0 0 1 1.86474,2.62705 c 0.20008,-0.28812 0.39015,-0.58023 0.57222,-0.88035 0.11405,-0.19008 0.22409,-0.38015 0.33014,-0.57223 a 13.565379,13.565379 0 0 0 -2.04281,-2.57702 15.752246,15.752246 0 0 1 -0.72429,1.40255 z"
       class="cls-2"
       inkscape:connector-curvature="0"
       style="fill:#231815;stroke-width:0.20007934" /><path
       id="path466-7-9"
       d="m 109.17194,136.81177 c -1.67467,0.96638 -0.16007,3.55741 1.5146,2.59102 l 5.83231,-3.36733 c 1.67266,-0.96638 0.16006,-3.55941 -1.5146,-2.60103 z"
       class="cls-2"
       inkscape:connector-curvature="0"
       style="fill:#231815;stroke-width:0.20007934" /><path
       id="path470-3-3"
       d="m 113.27556,149.09664 c -1.93276,0 -1.93076,3.00119 0,3.00119 h 6.73467 c 1.93477,0 1.93077,-3.00119 0,-3.00119 z"
       class="cls-2"
       inkscape:connector-curvature="0"
       style="fill:#231815;stroke-width:0.20007934" /><path
       inkscape:connector-curvature="0"
       id="rect634-0-9"
       d="m 96.899904,149.0566 c -0.638069,-0.002 -1.064818,0.0423 -1.064818,0.0423 -36.948518,0.009 -32.447369,0.002 -50.841385,0 v 12.51042 h 65.704189 c -3.95176,-1.23618 -7.126,-4.47175 -8.11083,-8.73457 0.0486,-3.37807 -3.772946,-3.81204 -5.687156,-3.81817 z"
       style="fill:#000000;fill-opacity:1;stroke:#000000;stroke-width:1.14055085" /><path
       style="fill:#9a7143;fill-opacity:1;stroke-width:1.14055085"
       d="m 40.283203,83.996094 c 0.386489,3.032898 2.265158,5.670254 5.005859,7.02539 0.390302,-0.778677 1.000582,-1.425523 1.75586,-1.859375 5.268109,-3.0418 9.830609,4.862497 4.5625,7.904297 -0.693089,0.402052 -1.479991,0.615788 -2.28125,0.617188 -0.38523,-0.0071 -0.768268,-0.06115 -1.140625,-0.160156 -1.184143,-0.281728 -2.206482,-1.025022 -2.839844,-2.064454 -0.355825,-0.64011 -0.553548,-1.35601 -0.580078,-2.08789 -3.781792,-1.657838 -6.370649,-5.22953 -6.771484,-9.337891 -1.414758,0.170642 -2.482749,1.365172 -2.490235,2.791016 V 100.60352 H 120.60547 V 83.996094 h -17.29688 c 0.40307,3.216831 2.48244,5.978214 5.46289,7.253906 1.2593,-2.842128 4.9305,-3.620197 7.23438,-1.533203 2.30388,2.086995 1.89169,5.816352 -0.8125,7.349609 -0.69138,0.406137 -1.47941,0.620188 -2.28125,0.617188 -0.38534,-0.0057 -0.76855,-0.05979 -1.14063,-0.160156 -1.84283,-0.49806 -3.18101,-2.091053 -3.35351,-3.992188 -4.076,-1.512174 -6.93739,-5.210171 -7.37891,-9.535156 H 72.046875 c 0.384134,3.030516 2.259795,5.667357 4.996094,7.02539 0.39625,-0.774494 1.005094,-1.419821 1.755859,-1.859375 1.036778,-0.594346 2.265594,-0.757023 3.421875,-0.455078 3.942772,1.027205 4.66416,6.313575 1.140625,8.359375 -0.691816,0.4051 -1.479557,0.619088 -2.28125,0.617188 -0.385338,-0.0057 -0.768543,-0.05979 -1.140625,-0.160156 -1.941211,-0.498955 -3.329635,-2.206799 -3.421875,-4.208985 -3.802985,-1.634209 -6.422527,-5.200604 -6.84375,-9.318359 z m -2.289062,0.03711 c 0.0027,-3.26e-4 0.0051,-0.0016 0.0078,-0.002 l -0.01172,-0.02344 c 8.16e-4,0.0086 0.0031,0.01683 0.0039,0.02539 z"
       id="path565-7-9"
       inkscape:connector-curvature="0" /><path
       inkscape:connector-curvature="0"
       style="fill:#2bb4a0;fill-opacity:1;stroke-width:1.14055085"
       id="path571-6-8"
       d="m 112.34238,73.731222 a 9.1244064,9.1244064 0 0 1 9.04457,7.983855 h -18.04352 a 9.1244064,9.1244064 0 0 1 9.03317,-7.97245 z" /><path
       inkscape:connector-curvature="0"
       style="fill:#2bb4a0;fill-opacity:1;stroke-width:1.14055085"
       id="path569-9-3"
       d="m 80.977235,73.731222 a 9.1244064,9.1244064 0 0 1 9.044566,7.983855 H 71.978289 a 9.1244064,9.1244064 0 0 1 9.033162,-7.97245 z" /><path
       inkscape:connector-curvature="0"
       style="fill:#2bb4a0;fill-opacity:1;stroke-width:1.14055085"
       id="path567-9-8"
       d="m 49.32695,73.742627 a 9.1244064,9.1244064 0 0 1 9.033162,7.983856 H 40.293788 a 9.1244064,9.1244064 0 0 1 9.033162,-7.983856 z" /><path
       inkscape:connector-curvature="0"
       style="fill:#2bb4a0;fill-opacity:1;stroke-width:1.14055085"
       id="path563-8-9"
       d="m 49.32695,91.99144 a 8.9077017,8.9077017 0 0 1 -1.847692,-0.193893 2.2811016,2.2811016 0 0 1 0.707141,-0.707153 2.2811016,2.2811016 0 0 1 1.722232,-0.228099 2.2811016,2.2811016 0 0 1 1.391472,1.072118 2.2811016,2.2811016 0 0 1 0.22811,1.722231 2.2811016,2.2811016 0 0 1 -1.060712,1.437094 2.2811016,2.2811016 0 0 1 -3.113704,-0.832602 0.80979107,0.80979107 0 0 1 -0.09124,-0.205299 11.211614,11.211614 0 0 0 2.064397,0.205299 1.1405508,1.1405508 0 0 0 0,-2.281101 z" /><path
       inkscape:connector-curvature="0"
       style="fill:#2bb4a0;fill-opacity:1;stroke-width:1.14055085"
       id="path561-9-4"
       d="m 81.000046,91.99144 a 8.9875403,8.9875403 0 0 1 -1.847693,-0.193893 2.4179677,2.4179677 0 0 1 0.707142,-0.650114 2.3495346,2.3495346 0 0 1 1.733637,-0.228111 2.2811016,2.2811016 0 0 1 1.380065,1.072118 2.2811016,2.2811016 0 1 1 -3.946304,2.281102 l -0.04562,-0.216705 a 11.211614,11.211614 0 0 0 2.064397,0.205299 1.1405508,1.1405508 0 0 0 0,-2.281101 z" /><path
       inkscape:connector-curvature="0"
       style="fill:#2bb4a0;fill-opacity:1;stroke-width:1.14055085"
       id="path559-9-6"
       d="m 112.36519,91.99144 a 8.508509,8.508509 0 0 1 -1.32304,-0.114055 2.4293732,2.4293732 0 0 1 0.75277,-0.729952 2.3609402,2.3609402 0 0 1 1.73363,-0.228111 2.2126686,2.2126686 0 0 1 1.38007,1.072118 2.2811016,2.2811016 0 0 1 -2.56624,3.341814 2.2811016,2.2811016 0 0 1 -1.38007,-1.060712 c 0,0 0,-0.06843 0,-0.10265 a 12.192488,12.192488 0 0 0 1.4485,0.10265 1.140551,1.140551 0 0 0 0,-2.281102 z" /><path
       id="path573-5-4-3"
       d="m 118.43945,83.990234 v 16.607426 h 8.28907 V 86.818359 c 0,-1.562175 -1.26595,-2.828127 -2.82813,-2.828125 z"
       style="display:inline;fill:#9a7143;fill-opacity:1;stroke-width:1.14055085"
       inkscape:connector-curvature="0" /></g></g></svg>